<svg width="103" height="23" viewBox="0 0 103 23" fill="none" xmlns="http://www.w3.org/2000/svg">
<path d="M0 0.319444H5.18293C6.9319 0.319444 8.24363 0.787963 9.11811 1.725C9.9926 2.66204 10.4298 4.03565 10.4298 5.84583V8.05C10.4298 9.86019 9.9926 11.2338 9.11811 12.1708C8.24363 13.1079 6.9319 13.5764 5.18293 13.5764H3.51927V22.6806H0V0.319444ZM5.18293 10.3819C5.75881 10.3819 6.18539 10.2222 6.46266 9.90278C6.76127 9.58333 6.91057 9.04028 6.91057 8.27361V5.62222C6.91057 4.85555 6.76127 4.3125 6.46266 3.99306C6.18539 3.67361 5.75881 3.51389 5.18293 3.51389H3.51927V10.3819H5.18293Z" fill="white"/>
<path d="M12.3412 0.319444H15.8605V22.6806H12.3412V0.319444Z" fill="white"/>
<path d="M21.5995 11.2444L17.7283 0.319444H21.4396L23.8071 7.53889H23.8711L26.3026 0.319444H29.6299L25.7587 11.2444L29.8218 22.6806H26.1106L23.5511 14.8861H23.4871L20.8637 22.6806H17.5364L21.5995 11.2444Z" fill="white"/>
<path d="M31.4935 0.319444H41.0915V3.51389H35.0127V9.42361H39.8437V12.6181H35.0127V19.4861H41.0915V22.6806H31.4935V0.319444Z" fill="white"/>
<path d="M43.1161 0.319444H46.6353V19.4861H52.4261V22.6806H43.1161V0.319444Z" fill="white"/>
<path d="M59.2377 0.319444H64.4207C66.1696 0.319444 67.4814 0.787963 68.3558 1.725C69.2303 2.66204 69.6676 4.03565 69.6676 5.84583V8.05C69.6676 9.86019 69.2303 11.2338 68.3558 12.1708C67.4814 13.1079 66.1696 13.5764 64.4207 13.5764H62.757V22.6806H59.2377V0.319444ZM64.4207 10.3819C64.9965 10.3819 65.4231 10.2222 65.7004 9.90278C65.999 9.58333 66.1483 9.04028 66.1483 8.27361V5.62222C66.1483 4.85555 65.999 4.3125 65.7004 3.99306C65.4231 3.67361 64.9965 3.51389 64.4207 3.51389H62.757V10.3819H64.4207Z" fill="white"/>
<path d="M71.5789 0.319444H76.7938C78.6068 0.319444 79.9292 0.74537 80.761 1.59722C81.5929 2.42778 82.0088 3.7162 82.0088 5.4625V6.83611C82.0088 9.15741 81.2409 10.6269 79.7052 11.2444V11.3083C80.5584 11.5639 81.1556 12.0856 81.4969 12.8736C81.8595 13.6616 82.0408 14.7157 82.0408 16.0361V19.9653C82.0408 20.6042 82.0621 21.1259 82.1047 21.5306C82.1474 21.9139 82.2541 22.2972 82.4247 22.6806H78.8414C78.7135 22.3185 78.6281 21.9778 78.5855 21.6583C78.5428 21.3389 78.5215 20.7639 78.5215 19.9333V15.8444C78.5215 14.8222 78.3509 14.1088 78.0096 13.7042C77.6897 13.2995 77.1244 13.0972 76.3139 13.0972H75.0982V22.6806H71.5789V0.319444ZM76.3779 9.90278C77.0818 9.90278 77.6043 9.72176 77.9456 9.35972C78.3082 8.99769 78.4895 8.39074 78.4895 7.53889V5.81389C78.4895 5.00463 78.3402 4.41898 78.0416 4.05695C77.7643 3.69491 77.3164 3.51389 76.6979 3.51389H75.0982V9.90278H76.3779Z" fill="white"/>
<path d="M89.5695 23C87.8418 23 86.5194 22.5102 85.6023 21.5306C84.6851 20.5509 84.2266 19.1667 84.2266 17.3778V5.62222C84.2266 3.83333 84.6851 2.44907 85.6023 1.46944C86.5194 0.489815 87.8418 0 89.5695 0C91.2971 0 92.6195 0.489815 93.5366 1.46944C94.4538 2.44907 94.9123 3.83333 94.9123 5.62222V17.3778C94.9123 19.1667 94.4538 20.5509 93.5366 21.5306C92.6195 22.5102 91.2971 23 89.5695 23ZM89.5695 19.8056C90.7852 19.8056 91.3931 19.0708 91.3931 17.6014V5.39861C91.3931 3.92917 90.7852 3.19445 89.5695 3.19445C88.3537 3.19445 87.7458 3.92917 87.7458 5.39861V17.6014C87.7458 19.0708 88.3537 19.8056 89.5695 19.8056Z" fill="white"/>
<path d="M97.1049 19.2944H100.496V22.6806H97.1049V19.2944Z" fill="white"/>
<path d="M97.0012 16.691H103V22.6806H97.0012V16.691Z" fill="#6142FF"/>
</svg>
