<svg width="32" height="32" viewBox="0 0 32 32" fill="none" xmlns="http://www.w3.org/2000/svg">
<path fill-rule="evenodd" clip-rule="evenodd" d="M13.2605 4.33334H18.7431C21.1938 4.33334 23.1351 4.33334 24.6538 4.53734C26.2165 4.74801 27.4818 5.19068 28.4805 6.18801C29.4778 7.18668 29.9205 8.45201 30.1311 10.0147C30.2511 10.912 30.3005 11.956 30.3205 13.1653C30.337 13.2668 30.3388 13.3701 30.3258 13.472C30.3338 14.2258 30.3369 15.0436 30.3351 15.9253V17.3333C30.3351 17.5986 30.2298 17.8529 30.0422 18.0404C29.8547 18.228 29.6003 18.3333 29.3351 18.3333C29.0699 18.3333 28.8155 18.228 28.628 18.0404C28.4405 17.8529 28.3351 17.5986 28.3351 17.3333V16C28.3351 15.4062 28.3342 14.8507 28.3325 14.3333H3.67112C3.66845 14.8507 3.66756 15.4062 3.66845 16C3.66845 18.5427 3.67112 20.3493 3.85512 21.72C4.03512 23.06 4.37379 23.8333 4.93779 24.3973C5.50179 24.9613 6.27512 25.3 7.61645 25.48C8.98712 25.664 10.7925 25.6667 13.3351 25.6667H17.3351C17.6003 25.6667 17.8547 25.772 18.0422 25.9596C18.2298 26.1471 18.3351 26.4015 18.3351 26.6667C18.3351 26.9319 18.2298 27.1862 18.0422 27.3738C17.8547 27.5613 17.6003 27.6667 17.3351 27.6667H13.2605C10.8098 27.6667 8.86845 27.6667 7.34979 27.4627C5.78712 27.252 4.52179 26.8093 3.52312 25.812C2.52579 24.8133 2.08312 23.548 1.87245 21.9853C1.66845 20.4653 1.66845 18.5253 1.66845 16.0747V15.9253C1.66668 15.0436 1.66979 14.2258 1.67779 13.472C1.66434 13.3701 1.66569 13.2668 1.68179 13.1653C1.70312 11.956 1.75245 10.912 1.87245 10.0147C2.08312 8.45201 2.52579 7.18668 3.52312 6.18801C4.52179 5.19068 5.78712 4.74801 7.34979 4.53734C8.86979 4.33334 10.8098 4.33334 13.2605 4.33334ZM3.70312 12.3333H28.3005C28.2829 11.6469 28.2321 10.9616 28.1485 10.28C27.9685 8.94001 27.6298 8.16668 27.0658 7.60268C26.5018 7.03868 25.7285 6.70001 24.3871 6.52001C23.0178 6.33601 21.2111 6.33334 18.6685 6.33334H13.3351C10.7925 6.33334 8.98712 6.33601 7.61512 6.52001C6.27512 6.70001 5.50179 7.03868 4.93779 7.60268C4.37379 8.16668 4.03512 8.94001 3.85512 10.28C3.77512 10.8733 3.72979 11.5493 3.70312 12.332M24.0018 19.6667C23.2061 19.6667 22.4431 19.9827 21.8805 20.5454C21.3179 21.108 21.0018 21.871 21.0018 22.6667C21.0018 23.4623 21.3179 24.2254 21.8805 24.788C22.4431 25.3506 23.2061 25.6667 24.0018 25.6667C24.7974 25.6667 25.5605 25.3506 26.1231 24.788C26.6857 24.2254 27.0018 23.4623 27.0018 22.6667C27.0018 21.871 26.6857 21.108 26.1231 20.5454C25.5605 19.9827 24.7974 19.6667 24.0018 19.6667ZM19.0018 22.6667C19.002 21.8871 19.1845 21.1184 19.5348 20.4219C19.885 19.7254 20.3932 19.1205 21.0189 18.6554C21.6446 18.1904 22.3703 17.878 23.1381 17.7434C23.906 17.6087 24.6947 17.6555 25.4413 17.8799C26.1878 18.1043 26.8716 18.5002 27.4379 19.036C28.0042 19.5717 28.4374 20.2325 28.7029 20.9654C28.9684 21.6984 29.0588 22.4833 28.9669 23.2575C28.8751 24.0316 28.6035 24.7735 28.1738 25.424L29.3751 26.6267C29.4734 26.7182 29.5522 26.8286 29.6068 26.9513C29.6615 27.074 29.6909 27.2064 29.6932 27.3406C29.6956 27.4749 29.6709 27.6083 29.6206 27.7328C29.5703 27.8573 29.4955 27.9704 29.4005 28.0654C29.3055 28.1604 29.1924 28.2352 29.0679 28.2855C28.9434 28.3358 28.81 28.3605 28.6758 28.3581C28.5415 28.3558 28.4091 28.3264 28.2864 28.2717C28.1637 28.2171 28.0533 28.1383 27.9618 28.04L26.7591 26.8387C26.0055 27.3369 25.1309 27.6216 24.2284 27.6626C23.3259 27.7035 22.4292 27.4992 21.6335 27.0712C20.8378 26.6433 20.173 26.0078 19.7096 25.2323C19.2462 24.4567 19.0016 23.5701 19.0018 22.6667ZM7.00179 21.3333C7.00179 21.0681 7.10714 20.8138 7.29468 20.6262C7.48222 20.4387 7.73657 20.3333 8.00179 20.3333H13.3351C13.6003 20.3333 13.8547 20.4387 14.0422 20.6262C14.2298 20.8138 14.3351 21.0681 14.3351 21.3333C14.3351 21.5986 14.2298 21.8529 14.0422 22.0404C13.8547 22.228 13.6003 22.3333 13.3351 22.3333H8.00179C7.73657 22.3333 7.48222 22.228 7.29468 22.0404C7.10714 21.8529 7.00179 21.5986 7.00179 21.3333Z" fill="#6142FF"/>
</svg>
