<svg width="106" height="18" viewBox="0 0 106 18" fill="none" xmlns="http://www.w3.org/2000/svg">
<path d="M6.18513 5.50506L1.40013 6.19881L1.31538 6.21606C1.18708 6.25012 1.07012 6.31762 0.976445 6.41167C0.882768 6.50571 0.815729 6.62293 0.782173 6.75136C0.748617 6.87979 0.749747 7.01482 0.785447 7.14267C0.821147 7.27052 0.890139 7.3866 0.985376 7.47906L4.45188 10.8533L3.63438 15.6196L3.62463 15.7021C3.61677 15.8348 3.64433 15.9672 3.70446 16.0857C3.7646 16.2042 3.85516 16.3047 3.96688 16.3767C4.07859 16.4487 4.20744 16.4898 4.34024 16.4956C4.47303 16.5015 4.605 16.472 4.72263 16.4101L9.00213 14.1601L13.2719 16.4101L13.3469 16.4446C13.4707 16.4933 13.6052 16.5083 13.7367 16.4879C13.8682 16.4675 13.9919 16.4125 14.0951 16.3285C14.1983 16.2445 14.2773 16.1346 14.324 16.01C14.3707 15.8855 14.3834 15.7507 14.3609 15.6196L13.5426 10.8533L17.0106 7.47831L17.0691 7.41456C17.1527 7.31164 17.2075 7.1884 17.2279 7.05741C17.2483 6.92642 17.2337 6.79235 17.1854 6.66886C17.1372 6.54538 17.0571 6.43689 16.9532 6.35445C16.8494 6.27201 16.7256 6.21857 16.5944 6.19956L11.8094 5.50506L9.67038 1.17006C9.60848 1.04446 9.51266 0.9387 9.39377 0.864742C9.27487 0.790784 9.13765 0.751587 8.99763 0.751587C8.85761 0.751587 8.72038 0.790784 8.60148 0.864742C8.48259 0.9387 8.38677 1.04446 8.32488 1.17006L6.18513 5.50506Z" fill="#F6D938"/>
<path d="M28.1851 5.50506L23.4001 6.19881L23.3154 6.21606C23.1871 6.25012 23.0701 6.31762 22.9764 6.41167C22.8828 6.50571 22.8157 6.62293 22.7822 6.75136C22.7486 6.87979 22.7497 7.01482 22.7854 7.14267C22.8211 7.27052 22.8901 7.3866 22.9854 7.47906L26.4519 10.8533L25.6344 15.6196L25.6246 15.7021C25.6168 15.8348 25.6443 15.9672 25.7045 16.0857C25.7646 16.2042 25.8552 16.3047 25.9669 16.3767C26.0786 16.4487 26.2074 16.4898 26.3402 16.4956C26.473 16.5015 26.605 16.472 26.7226 16.4101L31.0021 14.1601L35.2719 16.4101L35.3469 16.4446C35.4707 16.4933 35.6052 16.5083 35.7367 16.4879C35.8682 16.4675 35.9919 16.4125 36.0951 16.3285C36.1983 16.2445 36.2773 16.1346 36.324 16.01C36.3707 15.8855 36.3834 15.7507 36.3609 15.6196L35.5426 10.8533L39.0106 7.47831L39.0691 7.41456C39.1527 7.31164 39.2075 7.1884 39.2279 7.05741C39.2483 6.92642 39.2337 6.79235 39.1854 6.66886C39.1372 6.54538 39.0571 6.43689 38.9532 6.35445C38.8494 6.27201 38.7256 6.21857 38.5944 6.19956L33.8094 5.50506L31.6704 1.17006C31.6085 1.04446 31.5127 0.9387 31.3938 0.864742C31.2749 0.790784 31.1376 0.751587 30.9976 0.751587C30.8576 0.751587 30.7204 0.790784 30.6015 0.864742C30.4826 0.9387 30.3868 1.04446 30.3249 1.17006L28.1851 5.50506Z" fill="#F6D938"/>
<path d="M50.1851 5.50506L45.4001 6.19881L45.3154 6.21606C45.1871 6.25012 45.0701 6.31762 44.9764 6.41167C44.8828 6.50571 44.8157 6.62293 44.7822 6.75136C44.7486 6.87979 44.7497 7.01482 44.7854 7.14267C44.8211 7.27052 44.8901 7.3866 44.9854 7.47906L48.4519 10.8533L47.6344 15.6196L47.6246 15.7021C47.6168 15.8348 47.6443 15.9672 47.7045 16.0857C47.7646 16.2042 47.8552 16.3047 47.9669 16.3767C48.0786 16.4487 48.2074 16.4898 48.3402 16.4956C48.473 16.5015 48.605 16.472 48.7226 16.4101L53.0021 14.1601L57.2719 16.4101L57.3469 16.4446C57.4707 16.4933 57.6052 16.5083 57.7367 16.4879C57.8682 16.4675 57.9919 16.4125 58.0951 16.3285C58.1983 16.2445 58.2773 16.1346 58.324 16.01C58.3707 15.8855 58.3834 15.7507 58.3609 15.6196L57.5426 10.8533L61.0106 7.47831L61.0691 7.41456C61.1527 7.31164 61.2075 7.1884 61.2279 7.05741C61.2483 6.92642 61.2337 6.79235 61.1854 6.66886C61.1372 6.54538 61.0571 6.43689 60.9532 6.35445C60.8494 6.27201 60.7256 6.21857 60.5944 6.19956L55.8094 5.50506L53.6704 1.17006C53.6085 1.04446 53.5127 0.9387 53.3938 0.864742C53.2749 0.790784 53.1376 0.751587 52.9976 0.751587C52.8576 0.751587 52.7204 0.790784 52.6015 0.864742C52.4826 0.9387 52.3868 1.04446 52.3249 1.17006L50.1851 5.50506Z" fill="#F6D938"/>
<path d="M72.1851 5.50506L67.4001 6.19881L67.3154 6.21606C67.1871 6.25012 67.0701 6.31762 66.9764 6.41167C66.8828 6.50571 66.8157 6.62293 66.7822 6.75136C66.7486 6.87979 66.7497 7.01482 66.7854 7.14267C66.8211 7.27052 66.8901 7.3866 66.9854 7.47906L70.4519 10.8533L69.6344 15.6196L69.6246 15.7021C69.6168 15.8348 69.6443 15.9672 69.7045 16.0857C69.7646 16.2042 69.8552 16.3047 69.9669 16.3767C70.0786 16.4487 70.2074 16.4898 70.3402 16.4956C70.473 16.5015 70.605 16.472 70.7226 16.4101L75.0021 14.1601L79.2719 16.4101L79.3469 16.4446C79.4707 16.4933 79.6052 16.5083 79.7367 16.4879C79.8682 16.4675 79.9919 16.4125 80.0951 16.3285C80.1983 16.2445 80.2773 16.1346 80.324 16.01C80.3707 15.8855 80.3834 15.7507 80.3609 15.6196L79.5426 10.8533L83.0106 7.47831L83.0691 7.41456C83.1527 7.31164 83.2075 7.1884 83.2279 7.05741C83.2483 6.92642 83.2337 6.79235 83.1854 6.66886C83.1372 6.54538 83.0571 6.43689 82.9532 6.35445C82.8494 6.27201 82.7256 6.21857 82.5944 6.19956L77.8094 5.50506L75.6704 1.17006C75.6085 1.04446 75.5127 0.9387 75.3938 0.864742C75.2749 0.790784 75.1376 0.751587 74.9976 0.751587C74.8576 0.751587 74.7204 0.790784 74.6015 0.864742C74.4826 0.9387 74.3868 1.04446 74.3249 1.17006L72.1851 5.50506Z" fill="#F6D938"/>
<path d="M94.1851 5.50506L89.4001 6.19881L89.3154 6.21606C89.1871 6.25012 89.0701 6.31762 88.9764 6.41167C88.8828 6.50571 88.8157 6.62293 88.7822 6.75136C88.7486 6.87979 88.7497 7.01482 88.7854 7.14267C88.8211 7.27052 88.8901 7.3866 88.9854 7.47906L92.4519 10.8533L91.6344 15.6196L91.6246 15.7021C91.6168 15.8348 91.6443 15.9672 91.7045 16.0857C91.7646 16.2042 91.8552 16.3047 91.9669 16.3767C92.0786 16.4487 92.2074 16.4898 92.3402 16.4956C92.473 16.5015 92.605 16.472 92.7226 16.4101L97.0021 14.1601L101.272 16.4101L101.347 16.4446C101.471 16.4933 101.605 16.5083 101.737 16.4879C101.868 16.4675 101.992 16.4125 102.095 16.3285C102.198 16.2445 102.277 16.1346 102.324 16.01C102.371 15.8855 102.383 15.7507 102.361 15.6196L101.543 10.8533L105.011 7.47831L105.069 7.41456C105.153 7.31164 105.207 7.1884 105.228 7.05741C105.248 6.92642 105.234 6.79235 105.185 6.66886C105.137 6.54538 105.057 6.43689 104.953 6.35445C104.849 6.27201 104.726 6.21857 104.594 6.19956L99.8094 5.50506L97.6704 1.17006C97.6085 1.04446 97.5127 0.9387 97.3938 0.864742C97.2749 0.790784 97.1376 0.751587 96.9976 0.751587C96.8576 0.751587 96.7204 0.790784 96.6015 0.864742C96.4826 0.9387 96.3868 1.04446 96.3249 1.17006L94.1851 5.50506Z" fill="#F6D938"/>
</svg>
