<svg width="32" height="32" viewBox="0 0 32 32" fill="none" xmlns="http://www.w3.org/2000/svg">
<path d="M9.9987 10L13.9987 14M9.9987 22L13.9987 18M17.9987 18L21.9987 22M21.9987 10L17.9987 14M10.6654 24C10.6654 23.2928 10.3844 22.6145 9.88432 22.1144C9.38422 21.6143 8.70594 21.3333 7.9987 21.3333C7.29145 21.3333 6.61318 21.6143 6.11308 22.1144C5.61298 22.6145 5.33203 23.2928 5.33203 24C5.33203 24.7073 5.61298 25.3855 6.11308 25.8856C6.61318 26.3857 7.29145 26.6667 7.9987 26.6667C8.70594 26.6667 9.38422 26.3857 9.88432 25.8856C10.3844 25.3855 10.6654 24.7073 10.6654 24ZM26.6654 8.00001C26.6654 7.29277 26.3844 6.61449 25.8843 6.11439C25.3842 5.61429 24.7059 5.33334 23.9987 5.33334C23.2915 5.33334 22.6132 5.61429 22.1131 6.11439C21.613 6.61449 21.332 7.29277 21.332 8.00001C21.332 8.70725 21.613 9.38553 22.1131 9.88563C22.6132 10.3857 23.2915 10.6667 23.9987 10.6667C24.7059 10.6667 25.3842 10.3857 25.8843 9.88563C26.3844 9.38553 26.6654 8.70725 26.6654 8.00001ZM10.6654 8.00001C10.6654 7.29277 10.3844 6.61449 9.88432 6.11439C9.38422 5.61429 8.70594 5.33334 7.9987 5.33334C7.29145 5.33334 6.61318 5.61429 6.11308 6.11439C5.61298 6.61449 5.33203 7.29277 5.33203 8.00001C5.33203 8.70725 5.61298 9.38553 6.11308 9.88563C6.61318 10.3857 7.29145 10.6667 7.9987 10.6667C8.70594 10.6667 9.38422 10.3857 9.88432 9.88563C10.3844 9.38553 10.6654 8.70725 10.6654 8.00001ZM26.6654 24C26.6654 23.2928 26.3844 22.6145 25.8843 22.1144C25.3842 21.6143 24.7059 21.3333 23.9987 21.3333C23.2915 21.3333 22.6132 21.6143 22.1131 22.1144C21.613 22.6145 21.332 23.2928 21.332 24C21.332 24.7073 21.613 25.3855 22.1131 25.8856C22.6132 26.3857 23.2915 26.6667 23.9987 26.6667C24.7059 26.6667 25.3842 26.3857 25.8843 25.8856C26.3844 25.3855 26.6654 24.7073 26.6654 24ZM18.6654 16C18.6654 15.2928 18.3844 14.6145 17.8843 14.1144C17.3842 13.6143 16.7059 13.3333 15.9987 13.3333C15.2915 13.3333 14.6132 13.6143 14.1131 14.1144C13.613 14.6145 13.332 15.2928 13.332 16C13.332 16.7073 13.613 17.3855 14.1131 17.8856C14.6132 18.3857 15.2915 18.6667 15.9987 18.6667C16.7059 18.6667 17.3842 18.3857 17.8843 17.8856C18.3844 17.3855 18.6654 16.7073 18.6654 16Z" stroke="#6142FF" stroke-width="2" stroke-linecap="round" stroke-linejoin="round"/>
</svg>
