<svg width="32" height="32" viewBox="0 0 32 32" fill="none" xmlns="http://www.w3.org/2000/svg">
<path d="M9.33464 8.00001C9.33464 8.35363 9.19416 8.69277 8.94411 8.94281C8.69406 9.19286 8.35492 9.33334 8.0013 9.33334C7.64768 9.33334 7.30854 9.19286 7.05849 8.94281C6.80844 8.69277 6.66797 8.35363 6.66797 8.00001C6.66797 7.64638 6.80844 7.30724 7.05849 7.0572C7.30854 6.80715 7.64768 6.66667 8.0013 6.66667C8.35492 6.66667 8.69406 6.80715 8.94411 7.0572C9.19416 7.30724 9.33464 7.64638 9.33464 8.00001ZM13.3346 8.00001C13.3346 8.35363 13.1942 8.69277 12.9441 8.94281C12.6941 9.19286 12.3549 9.33334 12.0013 9.33334C11.6477 9.33334 11.3085 9.19286 11.0585 8.94281C10.8084 8.69277 10.668 8.35363 10.668 8.00001C10.668 7.64638 10.8084 7.30724 11.0585 7.0572C11.3085 6.80715 11.6477 6.66667 12.0013 6.66667C12.3549 6.66667 12.6941 6.80715 12.9441 7.0572C13.1942 7.30724 13.3346 7.64638 13.3346 8.00001ZM16.0013 9.33334C16.3549 9.33334 16.6941 9.19286 16.9441 8.94281C17.1942 8.69277 17.3346 8.35363 17.3346 8.00001C17.3346 7.64638 17.1942 7.30724 16.9441 7.0572C16.6941 6.80715 16.3549 6.66667 16.0013 6.66667C15.6477 6.66667 15.3085 6.80715 15.0585 7.0572C14.8084 7.30724 14.668 7.64638 14.668 8.00001C14.668 8.35363 14.8084 8.69277 15.0585 8.94281C15.3085 9.19286 15.6477 9.33334 16.0013 9.33334Z" fill="#F6D938"/>
<path fill-rule="evenodd" clip-rule="evenodd" d="M15.9253 1.66667C12.8466 1.66667 10.4346 1.66667 8.55197 1.92001C6.62664 2.17867 5.10664 2.72001 3.9133 3.912C2.71997 5.10534 2.17997 6.62534 1.9213 8.552C1.77064 9.66667 1.71064 10.9667 1.6853 12.4813C1.66521 12.5941 1.66341 12.7093 1.67997 12.8227C1.66797 13.7733 1.66797 14.804 1.66797 15.924V16.076C1.66797 19.1547 1.66797 21.5667 1.9213 23.4493C2.17997 25.3747 2.7213 26.8947 3.9133 28.088C5.10664 29.2813 6.62664 29.8213 8.5533 30.08C10.4346 30.3333 12.8466 30.3333 15.9253 30.3333H16.0773C19.156 30.3333 21.568 30.3333 23.4506 30.08C25.376 29.8213 26.896 29.28 28.0893 28.088C29.2826 26.8947 29.8226 25.3747 30.0813 23.448C30.3346 21.5667 30.3346 19.1547 30.3346 16.076V15.924C30.3346 14.804 30.3346 13.7733 30.3213 12.8227C30.3383 12.7094 30.3369 12.5942 30.3173 12.4813C30.2933 10.9667 30.232 9.66667 30.0813 8.552C29.8226 6.62534 29.2813 5.10534 28.0893 3.912C26.896 2.71867 25.376 2.17867 23.4493 1.92001C21.568 1.66667 19.156 1.66667 16.0773 1.66667H15.9253ZM3.66797 16C3.66797 15.1627 3.6693 14.3849 3.67197 13.6667H11.0013V28C11.0013 28.096 11.0142 28.188 11.04 28.276C10.2976 28.2513 9.55683 28.1921 8.81997 28.0987C7.11463 27.8693 6.08664 27.432 5.32664 26.6733C4.56797 25.9133 4.13197 24.8867 3.90264 23.1813C3.67064 21.448 3.66797 19.1707 3.66797 16ZM12.948 28.3227C13.864 28.3333 14.876 28.3333 16.0013 28.3333C19.172 28.3333 21.4493 28.3307 23.1826 28.0987C24.888 27.8693 25.916 27.432 26.676 26.6733C27.4346 25.9133 27.8706 24.8867 28.1 23.1813C28.332 21.448 28.3346 19.1707 28.3346 16C28.3346 15.1627 28.3333 14.3849 28.3306 13.6667H13.0013V28C13.0002 28.1097 12.9822 28.2185 12.948 28.3227ZM3.90264 8.81867C3.78758 9.76399 3.72083 10.7146 3.70264 11.6667H28.2986C28.2804 10.7146 28.2137 9.76399 28.0986 8.81867C27.8706 7.11334 27.4346 6.08534 26.6746 5.32534C25.9146 4.56667 24.888 4.13067 23.1826 3.90134C21.4493 3.66934 19.172 3.66667 16.0013 3.66667C12.8306 3.66667 10.5533 3.66934 8.81997 3.90134C7.11463 4.13067 6.08664 4.568 5.32664 5.32667C4.56797 6.08667 4.13197 7.11334 3.90264 8.81867Z" fill="#F6D938"/>
</svg>
