<svg width="32" height="32" viewBox="0 0 32 32" fill="none" xmlns="http://www.w3.org/2000/svg">
<path fill-rule="evenodd" clip-rule="evenodd" d="M9.91463 1.66667H22.088C22.848 1.66667 23.4933 1.66667 24.0253 1.72134C24.5933 1.78001 25.1186 1.90801 25.6146 2.21467C26.1093 2.52134 26.4586 2.93334 26.7653 3.41467C27.052 3.86801 27.3413 4.444 27.6813 5.124L27.7026 5.168C27.716 5.19467 27.728 5.22134 27.7386 5.24801L29.6093 9.97734C29.8333 10.5413 30.08 11.244 30.152 11.9613C30.2253 12.6973 30.1253 13.5387 29.548 14.268C29.0698 14.8757 28.4118 15.3167 27.668 15.528V28.3333H29.3346C29.5999 28.3333 29.8542 28.4387 30.0417 28.6262C30.2293 28.8138 30.3346 29.0681 30.3346 29.3333C30.3346 29.5986 30.2293 29.8529 30.0417 30.0404C29.8542 30.228 29.5999 30.3333 29.3346 30.3333H2.66797C2.40275 30.3333 2.1484 30.228 1.96086 30.0404C1.77333 29.8529 1.66797 29.5986 1.66797 29.3333C1.66797 29.0681 1.77333 28.8138 1.96086 28.6262C2.1484 28.4387 2.40275 28.3333 2.66797 28.3333H4.33464V15.528C3.59096 15.3171 2.93296 14.8766 2.45464 14.2693C1.87864 13.5387 1.7773 12.696 1.85064 11.9627C1.92264 11.2427 2.17064 10.5413 2.39197 9.97734L4.26397 5.24667L4.29997 5.16667L4.3213 5.124C4.6613 4.444 4.9493 3.86667 5.2373 3.41467C5.54397 2.93334 5.8933 2.52134 6.38797 2.21467C6.88397 1.90801 7.4093 1.78001 7.97597 1.72134C8.5093 1.66667 9.15463 1.66667 9.91463 1.66667ZM24.0013 14.5173C24.4555 14.9984 25.0314 15.3477 25.668 15.528V28.3333H20.3346V24.624C20.3346 24.0373 20.3346 23.5307 20.2973 23.1173C20.2573 22.6773 20.1693 22.2427 19.9333 21.8333C19.6699 21.377 19.291 20.9981 18.8346 20.7347C18.4253 20.4987 17.9906 20.4107 17.552 20.3707C17.136 20.3333 16.6306 20.3333 16.0453 20.3333H15.9586C15.372 20.3333 14.8653 20.3333 14.452 20.3707C14.012 20.4107 13.5773 20.4987 13.168 20.7347C12.7116 20.9981 12.3327 21.377 12.0693 21.8333C11.8333 22.2427 11.7453 22.6773 11.7053 23.116C11.668 23.532 11.668 24.0373 11.668 24.6227V28.3333H6.33464V15.5293C6.97149 15.3482 7.54743 14.9981 8.0013 14.516C8.34351 14.8799 8.75671 15.1698 9.21538 15.3677C9.67404 15.5656 10.1684 15.6674 10.668 15.6667C11.7186 15.6667 12.6666 15.2253 13.3346 14.516C13.6768 14.8799 14.09 15.1698 14.5487 15.3677C15.0074 15.5656 15.5018 15.6674 16.0013 15.6667C17.052 15.6667 18 15.2253 18.668 14.516C19.0102 14.8799 19.4234 15.1698 19.882 15.3677C20.3407 15.5656 20.8351 15.6674 21.3346 15.6667C22.3853 15.6667 23.3333 15.2267 24.0013 14.5173ZM13.668 28.3333H18.3346V24.6667C18.3346 24.0253 18.3346 23.6107 18.3053 23.2973C18.2786 22.9973 18.232 22.888 18.2 22.8333C18.1123 22.6817 17.9863 22.5557 17.8346 22.468C17.7813 22.436 17.6706 22.3907 17.3706 22.3627C16.9148 22.3349 16.458 22.3251 16.0013 22.3333C15.36 22.3333 14.9453 22.3333 14.632 22.3627C14.332 22.3893 14.2226 22.436 14.168 22.468C14.0163 22.5557 13.8903 22.6817 13.8026 22.8333C13.7706 22.8867 13.724 22.9973 13.6973 23.2973C13.6693 23.6107 13.668 24.0253 13.668 24.6667V28.3333ZM9.0013 12C9.0013 12.442 9.1769 12.866 9.48946 13.1785C9.80202 13.4911 10.2259 13.6667 10.668 13.6667C11.11 13.6667 11.5339 13.4911 11.8465 13.1785C12.159 12.866 12.3346 12.442 12.3346 12C12.3346 11.7348 12.44 11.4804 12.6275 11.2929C12.8151 11.1054 13.0694 11 13.3346 11C13.5999 11 13.8542 11.1054 14.0417 11.2929C14.2293 11.4804 14.3346 11.7348 14.3346 12C14.3346 12.442 14.5102 12.866 14.8228 13.1785C15.1354 13.4911 15.5593 13.6667 16.0013 13.6667C16.4433 13.6667 16.8673 13.4911 17.1798 13.1785C17.4924 12.866 17.668 12.442 17.668 12C17.668 11.7348 17.7733 11.4804 17.9609 11.2929C18.1484 11.1054 18.4028 11 18.668 11C18.9332 11 19.1875 11.1054 19.3751 11.2929C19.5626 11.4804 19.668 11.7348 19.668 12C19.668 12.442 19.8436 12.866 20.1561 13.1785C20.4687 13.4911 20.8926 13.6667 21.3346 13.6667C21.7767 13.6667 22.2006 13.4911 22.5131 13.1785C22.8257 12.866 23.0013 12.442 23.0013 12C23.0013 11.7348 23.1067 11.4804 23.2942 11.2929C23.4817 11.1054 23.7361 11 24.0013 11C24.2665 11 24.5209 11.1054 24.7084 11.2929C24.8959 11.4804 25.0013 11.7348 25.0013 12C25.0014 12.3464 25.1095 12.6841 25.3104 12.9663C25.5114 13.2485 25.7952 13.461 26.1225 13.5743C26.4499 13.6877 26.8044 13.6963 27.1368 13.5988C27.4692 13.5014 27.763 13.3028 27.9773 13.0307C28.1293 12.8387 28.204 12.5747 28.1613 12.1613C28.1186 11.732 27.96 11.244 27.7506 10.7133L25.8946 6.02267C25.5373 5.30934 25.2986 4.83601 25.0773 4.48934C24.864 4.15334 24.712 4.008 24.5626 3.91601C24.4146 3.82267 24.216 3.752 23.82 3.71067C23.4013 3.668 22.86 3.66667 22.0386 3.66667H9.96397C9.1413 3.66667 8.59997 3.66667 8.18264 3.71067C7.78664 3.752 7.58797 3.82401 7.43997 3.91601C7.29197 4.008 7.13863 4.15334 6.9253 4.48934C6.70263 4.83601 6.4653 5.30934 6.10797 6.02267L4.25197 10.7133C4.04264 11.244 3.88397 11.732 3.8413 12.1613C3.79997 12.5747 3.8733 12.8387 4.0253 13.0307C4.23963 13.3028 4.53342 13.5014 4.86583 13.5988C5.19823 13.6963 5.55274 13.6877 5.88006 13.5743C6.20738 13.461 6.49125 13.2485 6.6922 12.9663C6.89314 12.6841 7.00119 12.3464 7.0013 12C7.0013 11.7348 7.10666 11.4804 7.29419 11.2929C7.48173 11.1054 7.73609 11 8.0013 11C8.26652 11 8.52087 11.1054 8.70841 11.2929C8.89594 11.4804 9.0013 11.7348 9.0013 12Z" fill="#6142FF"/>
</svg>
