<svg width="18" height="18" viewBox="0 0 18 18" fill="none" xmlns="http://www.w3.org/2000/svg">
<path d="M6.18513 5.50506L1.40013 6.19881L1.31538 6.21606C1.18708 6.25012 1.07012 6.31762 0.976445 6.41167C0.882768 6.50571 0.815729 6.62293 0.782173 6.75136C0.748617 6.87979 0.749747 7.01482 0.785447 7.14267C0.821147 7.27052 0.890139 7.3866 0.985376 7.47906L4.45188 10.8533L3.63438 15.6196L3.62463 15.7021C3.61677 15.8348 3.64433 15.9672 3.70446 16.0857C3.7646 16.2042 3.85516 16.3047 3.96688 16.3767C4.07859 16.4487 4.20744 16.4898 4.34024 16.4956C4.47303 16.5015 4.605 16.472 4.72263 16.4101L9.00213 14.1601L13.2719 16.4101L13.3469 16.4446C13.4707 16.4933 13.6052 16.5083 13.7367 16.4879C13.8682 16.4675 13.9919 16.4125 14.0951 16.3285C14.1983 16.2445 14.2773 16.1346 14.324 16.01C14.3707 15.8855 14.3834 15.7507 14.3609 15.6196L13.5426 10.8533L17.0106 7.47831L17.0691 7.41456C17.1527 7.31164 17.2075 7.1884 17.2279 7.05741C17.2483 6.92642 17.2337 6.79235 17.1854 6.66886C17.1372 6.54538 17.0571 6.43689 16.9532 6.35445C16.8494 6.27201 16.7256 6.21857 16.5944 6.19956L11.8094 5.50506L9.67038 1.17006C9.60848 1.04446 9.51266 0.9387 9.39377 0.864742C9.27487 0.790784 9.13765 0.751587 8.99763 0.751587C8.85761 0.751587 8.72038 0.790784 8.60148 0.864742C8.48259 0.9387 8.38677 1.04446 8.32488 1.17006L6.18513 5.50506Z" fill="#F6D938"/>
</svg>
