<svg width="32" height="32" viewBox="0 0 32 32" fill="none" xmlns="http://www.w3.org/2000/svg">
<path d="M2.66797 16C2.66797 22.2853 2.66797 25.428 4.61997 27.38C6.57464 29.3333 9.71597 29.3333 16.0013 29.3333C22.2866 29.3333 25.4293 29.3333 27.3813 27.38C29.3346 25.4293 29.3346 22.2853 29.3346 16V14M18.0013 2.66663H16.0013C9.71597 2.66663 6.5733 2.66663 4.61997 4.61863C3.32264 5.91729 2.88664 7.74263 2.7413 10.6666" stroke="#F6D938" stroke-width="1.5" stroke-linecap="round"/>
<path d="M22.2049 4.60666L23.0702 3.74133C23.7587 3.05301 24.6924 2.66638 25.666 2.6665C26.6396 2.66663 27.5732 3.0535 28.2615 3.742C28.9499 4.4305 29.3365 5.36424 29.3364 6.3378C29.3362 7.31137 28.9494 8.24501 28.2609 8.93333L27.3942 9.79866C27.3942 9.79866 25.5569 9.69066 23.9355 8.068C22.3129 6.44666 22.2049 4.608 22.2049 4.608L14.2515 12.56C13.7129 13.0987 13.4435 13.368 13.2115 13.6653C12.9378 14.0164 12.7049 14.3933 12.5129 14.796C12.3515 15.136 12.2315 15.4973 11.9902 16.22L11.2182 18.5333M11.2182 18.5333L10.7195 20.0293C10.6609 20.2038 10.6521 20.3912 10.6941 20.5704C10.7361 20.7496 10.8273 20.9135 10.9574 21.0438C11.0875 21.174 11.2513 21.2653 11.4304 21.3075C11.6096 21.3497 11.797 21.3411 11.9715 21.2827L13.4689 20.784M11.2182 18.5333L13.4689 20.784M27.3955 9.79733L23.4182 13.7733M19.4422 17.7507C18.9035 18.2893 18.6342 18.5587 18.3369 18.7907C17.9864 19.0638 17.6073 19.2981 17.2062 19.4893C16.8662 19.6507 16.5049 19.7707 15.7822 20.012L13.4689 20.784" stroke="#F6D938" stroke-width="1.5" stroke-linecap="round"/>
</svg>
